<?xml version="1.0" encoding="utf-8"?>
<!-- Generator: Adobe Illustrator 24.0.1, SVG Export Plug-In . SVG Version: 6.00 Build 0)  -->
<svg version="1.1" id="Layer_1" xmlns="http://www.w3.org/2000/svg" xmlns:xlink="http://www.w3.org/1999/xlink" x="0px" y="0px"
	 viewBox="0 0 500 500" style="enable-background:new 0 0 500 500;" xml:space="preserve">
<style type="text/css">
	.st0{fill-rule:evenodd;clip-rule:evenodd;fill:#FFFFFF;}
</style>
<path class="st0" d="M46.1,249.5c0,112.9,91.5,204.4,204.4,204.4c112.9,0,204.4-91.5,204.4-204.4c0-112.9-91.5-204.4-204.4-204.4
	C137.6,45.1,46.1,136.6,46.1,249.5z M91.5,249.5c0-46.3,19.8-88,51.4-117.1c0,0,2.5-2.5,3.3-3c2.3-1.7,5.2-2.8,8.4-2.8
	c7.5,0,13.6,6.1,13.6,13.6c0,1-1.2,6.6-1.2,6.6c-1.8,9.7-2.8,19.7-2.8,30c0,87.9,71.1,159,159,159c9.9,0,19.5-0.9,28.9-2.6l4.4-1
	c1-0.2,2-0.4,3.1-0.4c7.5,0,13.6,6.1,13.6,13.6c0,3.4-1.2,6.4-3.2,8.7c-0.4,0.5-2.4,2.9-3.1,3.6c-29,31.3-70.4,50.7-116.4,50.7
	C162.6,408.5,91.5,337.4,91.5,249.5z"/>
</svg>
